<?xml version="1.0" encoding="utf-8"?>
<svg version="1.1" xmlns:xlink="http://www.w3.org/1999/xlink" width="16px" height="16px" xmlns="http://www.w3.org/2000/svg">
  <g transform="matrix(1 0 0 1 -322 -18 )">
    <path d="M 15.731684667968747 7.129493671875  C 15.731684628906251 5.1156871289062495  13.642940644531249 0.29291791015625  8.00001265625 0.29291791015625  C 2.35649130859375 0.29291791015625  0.26834847656249927 5.21501431640625  0.26834847656249927 7.9746159765625  C 0.26834847656249927 10.734237148437499  2.235787988281249 15.70628796875  7.835261074218749 15.70628796875  C 8.4867958984375 15.70628796875  9.2180383984375 15.501309765625003  9.2180383984375 14.729582988281251  C 9.2180383984375 13.44669888671875  8.00001265625 13.78292013671875  8.00001265625 12.461312285156252  C 8.00001265625 11.877723574218752  8.560355390624999 11.455057031250002  9.516605507812498 11.455057031250002  C 9.99218541015625 11.455057031250002  11.779001289062498 11.603745273437502  12.872736308593748 11.18147298828125  C 13.966471328124998 10.759200703125  15.731684667968747 9.416864707031252  15.731684667968747 7.129493671875  Z M 4.62841578125 6.657263027343749  C 4.62841578125 7.39831529296875  4.027132050781249 7.999599023437501  3.28607978515625 7.999599023437501  C 2.5444341796875003 7.999599023437501  1.9437437890625002 7.39831529296875  1.9437437890625002 6.657263027343751  C 1.9437437890625002 5.915613515624999  2.545027519531251 5.314333691406249  3.28607978515625 5.314333691406249  C 4.027132050781249 5.314333691406249  4.62841578125 5.915617421875  4.62841578125 6.657263027343749  Z M 7.1614288671874995 3.3356166601562505  C 7.16202611328125 4.0766689257812505  6.5607306640625005 4.6779526562500005  5.81909287109375 4.6779526562500005  C 5.077447265625 4.6779526562500005  4.476756875 4.0766689257812505  4.476756875 3.3356166601562505  C 4.476756875 2.5939788671875004  5.07804060546875 1.9932806640625005  5.81909287109375 1.9932806640625005  C 6.56013341796875 1.9932806640625005  7.1614288671874995 2.5939788671875013  7.1614288671874995 3.3356166601562505  Z M 11.467361015625002 3.3356166601562505  C 11.467360996093749 4.0766689257812505  10.866085078125 4.6779526562500005  10.12502501953125 4.6779526562500005  C 9.38398447265625 4.6779526562500005  8.782689023437499 4.0766689257812505  8.782689023437499 3.3356166601562505  C 8.782689023437499 2.5939788671875004  9.38398056640625 1.9932806640625005  10.12502501953125 1.9932806640625005  C 10.866088984375 1.9932806640625005  11.467361015625002 2.5939788671875013  11.467361015625002 3.3356166601562505  Z M 14.024170449218747 6.657263027343749  C 14.024170449218751 7.39831529296875  13.42289453125 7.999599023437501  12.681248925781249 7.999599023437501  C 11.9401849609375 7.999599023437501  11.338912929687499 7.39831529296875  11.338912929687499 6.657263027343751  C 11.338912929687499 5.915613515624999  11.940184960937499 5.314333691406249  12.681248925781249 5.314333691406249  C 13.42289453125 5.314333691406249  14.024170449218747 5.915617421875  14.024170449218747 6.657263027343749  Z " fill-rule="nonzero" fill="#ffffff" stroke="none" transform="matrix(1 0 0 1 322 18 )" />
  </g>
</svg>