<?xml version="1.0" encoding="utf-8"?>
<svg version="1.1" xmlns:xlink="http://www.w3.org/1999/xlink" width="81px" height="7px" xmlns="http://www.w3.org/2000/svg">
  <defs>
    <mask fill="white" id="clip129">
      <path d="M 79.02935945820015 7  L 81 0  L 0 3.7922089006769966E-05  L 1.9706405485128895 7  L 7.053669500339214 7  L 10.510129196574304 7  L 12.136698452165538 7  L 15.59315814840063 7  L 18.236333194357126 7  L 20.6761870724102 7  L 21.286150565452925 7  L 26.369179517279246 7  L 26.775821835200905 7  L 29.82563921351434 7  L 31.45220846910557 7  L 34.90866815634757 7  L 37.551843211446254 7  L 39.99169708935024 7  L 40.986070716288566 7  L 41.00832302154954 7  L 43.44815679541588 7  L 46.09133184137237 7  L 49.547791537607466 7  L 51.1743607931987 7  L 54.22417817151214 7  L 54.630820489433795 7  L 59.713849441260116 7  L 60.323812934302836 7  L 62.763666812355915 7  L 65.40684185831242 7  L 68.8633015545475 7  L 70.48987081013874 7  L 73.94633050637383 7  L 79.02935945820015 7  Z M 39.99169708935024 7  L 37.55184321129716 7  L 39.99169708935024 7  Z M 40.98626430073392 7  L 39.991697086186264 7  L 40.98626430073392 7  Z M 43.44305118133827 7  L 41.00836926191857 7  L 43.44305118133827 7  Z " fill-rule="evenodd" />
    </mask>
  </defs>
  <g transform="matrix(1 0 0 1 -807 -74 )">
    <path d="M 79.02935945820015 7  L 81 0  L 0 3.7922089006769966E-05  L 1.9706405485128895 7  L 7.053669500339214 7  L 10.510129196574304 7  L 12.136698452165538 7  L 15.59315814840063 7  L 18.236333194357126 7  L 20.6761870724102 7  L 21.286150565452925 7  L 26.369179517279246 7  L 26.775821835200905 7  L 29.82563921351434 7  L 31.45220846910557 7  L 34.90866815634757 7  L 37.551843211446254 7  L 39.99169708935024 7  L 40.986070716288566 7  L 41.00832302154954 7  L 43.44815679541588 7  L 46.09133184137237 7  L 49.547791537607466 7  L 51.1743607931987 7  L 54.22417817151214 7  L 54.630820489433795 7  L 59.713849441260116 7  L 60.323812934302836 7  L 62.763666812355915 7  L 65.40684185831242 7  L 68.8633015545475 7  L 70.48987081013874 7  L 73.94633050637383 7  L 79.02935945820015 7  Z M 39.99169708935024 7  L 37.55184321129716 7  L 39.99169708935024 7  Z M 40.98626430073392 7  L 39.991697086186264 7  L 40.98626430073392 7  Z M 43.44305118133827 7  L 41.00836926191857 7  L 43.44305118133827 7  Z " fill-rule="nonzero" fill="#50bd4d" stroke="none" transform="matrix(1 0 0 1 807 74 )" />
    <path d="M 79.02935945820015 7  L 81 0  L 0 3.7922089006769966E-05  L 1.9706405485128895 7  L 7.053669500339214 7  L 10.510129196574304 7  L 12.136698452165538 7  L 15.59315814840063 7  L 18.236333194357126 7  L 20.6761870724102 7  L 21.286150565452925 7  L 26.369179517279246 7  L 26.775821835200905 7  L 29.82563921351434 7  L 31.45220846910557 7  L 34.90866815634757 7  L 37.551843211446254 7  L 39.99169708935024 7  L 40.986070716288566 7  L 41.00832302154954 7  L 43.44815679541588 7  L 46.09133184137237 7  L 49.547791537607466 7  L 51.1743607931987 7  L 54.22417817151214 7  L 54.630820489433795 7  L 59.713849441260116 7  L 60.323812934302836 7  L 62.763666812355915 7  L 65.40684185831242 7  L 68.8633015545475 7  L 70.48987081013874 7  L 73.94633050637383 7  L 79.02935945820015 7  Z " stroke-width="2" stroke="#50bd4d" fill="none" transform="matrix(1 0 0 1 807 74 )" mask="url(#clip129)" />
    <path d="M 39.99169708935024 7  L 37.55184321129716 7  L 39.99169708935024 7  Z " stroke-width="2" stroke="#50bd4d" fill="none" transform="matrix(1 0 0 1 807 74 )" mask="url(#clip129)" />
    <path d="M 40.98626430073392 7  L 39.991697086186264 7  L 40.98626430073392 7  Z " stroke-width="2" stroke="#50bd4d" fill="none" transform="matrix(1 0 0 1 807 74 )" mask="url(#clip129)" />
    <path d="M 43.44305118133827 7  L 41.00836926191857 7  L 43.44305118133827 7  Z " stroke-width="2" stroke="#50bd4d" fill="none" transform="matrix(1 0 0 1 807 74 )" mask="url(#clip129)" />
  </g>
</svg>