<?xml version="1.0" encoding="utf-8"?>
<svg version="1.1" xmlns:xlink="http://www.w3.org/1999/xlink" width="95px" height="60px" xmlns="http://www.w3.org/2000/svg">
  <defs>
    <mask fill="white" id="clip127">
      <path d="M 94.03731357092681 16.89833827993914  L 83.10982489815558 28.10583187704634  L 52.50000000000001 59.5  L 0.9676504023951509 29.756648726980416  C 11.595297410615302 11.343537978282313  31.239954647857587 0  52.50000000000001 0  C 68.0197420787959 0  82.92526647809558 6.063911502344951  94.03731357092681 16.89833827993914  Z " fill-rule="evenodd" />
    </mask>
  </defs>
  <g transform="matrix(1 0 0 1 -147 -189 )">
    <path d="M 94.03731357092681 16.89833827993914  L 83.10982489815558 28.10583187704634  L 52.50000000000001 59.5  L 0.9676504023951509 29.756648726980416  C 11.595297410615302 11.343537978282313  31.239954647857587 0  52.50000000000001 0  C 68.0197420787959 0  82.92526647809558 6.063911502344951  94.03731357092681 16.89833827993914  Z " fill-rule="nonzero" fill="#61418c" stroke="none" transform="matrix(1 0 0 1 147 189 )" />
    <path d="M 94.03731357092681 16.89833827993914  L 83.10982489815558 28.10583187704634  L 52.50000000000001 59.5  L 0.9676504023951509 29.756648726980416  C 11.595297410615302 11.343537978282313  31.239954647857587 0  52.50000000000001 0  C 68.0197420787959 0  82.92526647809558 6.063911502344951  94.03731357092681 16.89833827993914  Z " stroke-width="2" stroke="#ffffff" fill="none" transform="matrix(1 0 0 1 147 189 )" mask="url(#clip127)" />
  </g>
</svg>