<?xml version="1.0" encoding="utf-8"?>
<svg version="1.1" xmlns:xlink="http://www.w3.org/1999/xlink" width="6px" height="6px" xmlns="http://www.w3.org/2000/svg">
  <g transform="matrix(1 0 0 1 -97 -320 )">
    <path d="M 100 320  C 101.68 320  103 321.32  103 323  C 103 324.68  101.68 326  100 326  C 98.32 326  97 324.68  97 323  C 97 321.32  98.32 320  100 320  Z " fill-rule="nonzero" fill="#61418c" stroke="none" />
    <path d="M 100 320.5  C 101.4 320.5  102.5 321.6  102.5 323  C 102.5 324.4  101.4 325.5  100 325.5  C 98.6 325.5  97.5 324.4  97.5 323  C 97.5 321.6  98.6 320.5  100 320.5  Z " stroke-width="1" stroke="#434f96" fill="none" />
  </g>
</svg>