<?xml version="1.0" encoding="utf-8"?>
<svg version="1.1" xmlns:xlink="http://www.w3.org/1999/xlink" width="81px" height="7px" xmlns="http://www.w3.org/2000/svg">
  <defs>
    <mask fill="white" id="clip131">
      <path d="M 79.02935945820013 0  L 81 7  L 0 6.99996207791105  L 1.9706405485128469 0  L 7.053669500339197 0  L 10.510129196574324 0  L 12.136698452165547 0  L 15.593158148400677 0  L 18.236333194357144 0  L 20.676187072410244 0  L 21.286150565452886 0  L 26.369179517279235 0  L 26.775821835200873 0  L 29.82563921351436 0  L 31.452208469105585 0  L 34.90866815634752 0  L 37.551843211446226 0  L 39.99169708935028 0  L 40.98607071628862 0  L 41.008323021549586 0  L 43.44815679541591 0  L 46.09133184137237 0  L 49.547791537607516 0  L 51.17436079319873 0  L 54.22417817151211 0  L 54.630820489433745 0  L 59.7138494412601 0  L 60.32381293430284 0  L 62.76366681235595 0  L 65.40684185831242 0  L 68.86330155454755 0  L 70.48987081013877 0  L 73.94633050637378 0  L 79.02935945820013 0  Z M 39.99169708935028 0  L 37.55184321129718 0  L 39.99169708935028 0  Z M 40.986264300733865 0  L 39.991697086186264 0  L 40.986264300733865 0  Z M 43.44305118133832 0  L 41.008369261918574 0  L 43.44305118133832 0  Z " fill-rule="evenodd" />
    </mask>
  </defs>
  <g transform="matrix(1 0 0 1 -557 -845 )">
    <path d="M 79.02935945820013 0  L 81 7  L 0 6.99996207791105  L 1.9706405485128469 0  L 7.053669500339197 0  L 10.510129196574324 0  L 12.136698452165547 0  L 15.593158148400677 0  L 18.236333194357144 0  L 20.676187072410244 0  L 21.286150565452886 0  L 26.369179517279235 0  L 26.775821835200873 0  L 29.82563921351436 0  L 31.452208469105585 0  L 34.90866815634752 0  L 37.551843211446226 0  L 39.99169708935028 0  L 40.98607071628862 0  L 41.008323021549586 0  L 43.44815679541591 0  L 46.09133184137237 0  L 49.547791537607516 0  L 51.17436079319873 0  L 54.22417817151211 0  L 54.630820489433745 0  L 59.7138494412601 0  L 60.32381293430284 0  L 62.76366681235595 0  L 65.40684185831242 0  L 68.86330155454755 0  L 70.48987081013877 0  L 73.94633050637378 0  L 79.02935945820013 0  Z M 39.99169708935028 0  L 37.55184321129718 0  L 39.99169708935028 0  Z M 40.986264300733865 0  L 39.991697086186264 0  L 40.986264300733865 0  Z M 43.44305118133832 0  L 41.008369261918574 0  L 43.44305118133832 0  Z " fill-rule="nonzero" fill="#50bd4d" stroke="none" transform="matrix(1 0 0 1 557 845 )" />
    <path d="M 79.02935945820013 0  L 81 7  L 0 6.99996207791105  L 1.9706405485128469 0  L 7.053669500339197 0  L 10.510129196574324 0  L 12.136698452165547 0  L 15.593158148400677 0  L 18.236333194357144 0  L 20.676187072410244 0  L 21.286150565452886 0  L 26.369179517279235 0  L 26.775821835200873 0  L 29.82563921351436 0  L 31.452208469105585 0  L 34.90866815634752 0  L 37.551843211446226 0  L 39.99169708935028 0  L 40.98607071628862 0  L 41.008323021549586 0  L 43.44815679541591 0  L 46.09133184137237 0  L 49.547791537607516 0  L 51.17436079319873 0  L 54.22417817151211 0  L 54.630820489433745 0  L 59.7138494412601 0  L 60.32381293430284 0  L 62.76366681235595 0  L 65.40684185831242 0  L 68.86330155454755 0  L 70.48987081013877 0  L 73.94633050637378 0  L 79.02935945820013 0  Z " stroke-width="2" stroke="#50bd4d" fill="none" transform="matrix(1 0 0 1 557 845 )" mask="url(#clip131)" />
    <path d="M 39.99169708935028 0  L 37.55184321129718 0  L 39.99169708935028 0  Z " stroke-width="2" stroke="#50bd4d" fill="none" transform="matrix(1 0 0 1 557 845 )" mask="url(#clip131)" />
    <path d="M 40.986264300733865 0  L 39.991697086186264 0  L 40.986264300733865 0  Z " stroke-width="2" stroke="#50bd4d" fill="none" transform="matrix(1 0 0 1 557 845 )" mask="url(#clip131)" />
    <path d="M 43.44305118133832 0  L 41.008369261918574 0  L 43.44305118133832 0  Z " stroke-width="2" stroke="#50bd4d" fill="none" transform="matrix(1 0 0 1 557 845 )" mask="url(#clip131)" />
  </g>
</svg>