<?xml version="1.0" encoding="utf-8"?>
<svg version="1.1" xmlns:xlink="http://www.w3.org/1999/xlink" width="6px" height="6px" xmlns="http://www.w3.org/2000/svg">
  <g transform="matrix(1 0 0 1 -154 -320 )">
    <path d="M 157 320  C 158.68 320  160 321.32  160 323  C 160 324.68  158.68 326  157 326  C 155.32 326  154 324.68  154 323  C 154 321.32  155.32 320  157 320  Z " fill-rule="nonzero" fill="#2598bc" stroke="none" />
    <path d="M 157 320.5  C 158.4 320.5  159.5 321.6  159.5 323  C 159.5 324.4  158.4 325.5  157 325.5  C 155.6 325.5  154.5 324.4  154.5 323  C 154.5 321.6  155.6 320.5  157 320.5  Z " stroke-width="1" stroke="#434f96" fill="none" />
  </g>
</svg>