<?xml version="1.0" encoding="utf-8"?>
<svg version="1.1" xmlns:xlink="http://www.w3.org/1999/xlink" width="17px" height="39px" xmlns="http://www.w3.org/2000/svg">
  <g transform="matrix(1 0 0 1 -824 -338 )">
    <path d="M 16.0703125 11.877272727272725  C 16.690104166666742 12.704545454545439  17 13.70909090909089  17 14.890909090909192  L 17 24.10909090909081  C 17 24.700000000000045  16.845052083333258 25.20227272727277  16.53515625 25.615909090909103  C 16.225260416666742 26.029545454545428  15.848958333333258 26.236363636363592  15.40625 26.236363636363592  C 14.963541666666742 26.236363636363592  14.587239583333258 26.029545454545428  14.27734375 25.615909090909103  C 13.967447916666742 25.20227272727277  13.8125 24.700000000000045  13.8125 24.10909090909081  L 13.8125 16.309090909090855  L 12.75 16.309090909090855  L 12.75 36.518181818181915  C 12.75 37.19772727272726  12.5673828125 37.78125  12.2021484375 38.268749999999955  C 11.8369140625 38.75625000000008  11.399739583333258 39  10.890625 39  C 10.381510416666742 39  9.9443359375 38.75625000000008  9.5791015625 38.268749999999955  C 9.2138671875 37.78125  9.03125 37.19772727272726  9 36.518181818181915  L 9 26.236363636363592  L 8 26.236363636363592  L 8 36.518181818181915  C 7.96875 37.19772727272726  7.7861328125 37.78125  7.4208984375 38.268749999999955  C 7.0556640625 38.75625000000008  6.6184895833332575 39  6.109375 39  C 5.6002604166667425 39  5.1630859375 38.75625000000008  4.7978515625 38.268749999999955  C 4.4326171875 37.78125  4.25 37.19772727272726  4.25 36.518181818181915  L 4.25 16.309090909090855  L 3.1875 16.309090909090855  L 3.1875 24.10909090909081  C 3.1875 24.700000000000045  3.0325520833332575 25.20227272727277  2.72265625 25.615909090909103  C 2.4127604166667425 26.029545454545428  2.0364583333332575 26.236363636363592  1.59375 26.236363636363592  C 1.1510416666667425 26.236363636363592  0.7747395833332575 26.029545454545428  0.46484375 25.615909090909103  C 0.15494791666674246 25.20227272727277  0 24.700000000000045  0 24.10909090909081  L 0 14.890909090909192  C 0 13.70909090909089  0.30989583333325754 12.704545454545439  0.9296875 11.877272727272725  C 1.5494791666667425 11.049999999999955  2.3020833333332575 10.636363636363626  3.1875 11  L 13.8125 11  C 14.697916666666742 10.636363636363626  15.450520833333258 11.049999999999955  16.0703125 11.877272727272725  Z M 11.13134765625 1.4514204545454845  C 11.856282552083258 2.419034090909122  12.21875 3.589772727272759  12.21875 4.963636363636341  C 12.21875 6.337499999999977  11.856282552083258 7.5082386363636715  11.13134765625 8.475852272727252  C 10.406412760416742 9.443465909090946  9.529296875 9.927272727272737  8.5 9.927272727272737  C 7.470703125 9.927272727272737  6.5935872395832575 9.443465909090946  5.86865234375 8.475852272727252  C 5.1437174479167425 7.5082386363636715  4.78125 6.337499999999977  4.78125 4.963636363636341  C 4.78125 3.589772727272759  5.1437174479167425 2.419034090909122  5.86865234375 1.4514204545454845  C 6.5935872395832575 0.4838068181818471  7.470703125 0  8.5 0  C 9.529296875 0  10.406412760416742 0.4838068181818471  11.13134765625 1.4514204545454845  Z " fill-rule="nonzero" fill="#ffffff" stroke="none" transform="matrix(1 0 0 1 824 338 )" />
  </g>
</svg>