<?xml version="1.0" encoding="utf-8"?>
<svg version="1.1" xmlns:xlink="http://www.w3.org/1999/xlink" width="71px" height="71px" xmlns="http://www.w3.org/2000/svg">
  <g transform="matrix(1 0 0 1 -22 -48 )">
    <path d="M 57.5 50  C 76.26 50  91 64.74  91 83.5  C 91 102.26  76.26 117  57.5 117  C 38.739999999999995 117  24 102.26  24 83.5  C 24 64.74  38.739999999999995 50  57.5 50  Z " fill-rule="nonzero" fill="#0b0720" stroke="none" />
    <path d="M 57.5 49.5  C 76.53999999999999 49.5  91.5 64.46  91.5 83.5  C 91.5 102.53999999999999  76.53999999999999 117.5  57.5 117.5  C 38.459999999999994 117.5  23.5 102.53999999999999  23.5 83.5  C 23.5 64.46  38.459999999999994 49.5  57.5 49.5  Z " stroke-width="3" stroke="#797979" fill="none" />
  </g>
</svg>