<?xml version="1.0" encoding="utf-8"?>
<svg version="1.1" xmlns:xlink="http://www.w3.org/1999/xlink" width="95px" height="95px" xmlns="http://www.w3.org/2000/svg">
  <g transform="matrix(1 0 0 1 -793 -122 )">
    <path d="M 840.5 124  C 865.98 124  886 144.01999999999998  886 169.5  C 886 194.98000000000002  865.98 215  840.5 215  C 815.02 215  795 194.98000000000002  795 169.5  C 795 144.01999999999998  815.02 124  840.5 124  Z " fill-rule="nonzero" fill="#0b0720" stroke="none" />
    <path d="M 840.5 123.5  C 866.26 123.5  886.5 143.74  886.5 169.5  C 886.5 195.26  866.26 215.5  840.5 215.5  C 814.74 215.5  794.5 195.26  794.5 169.5  C 794.5 143.74  814.74 123.5  840.5 123.5  Z " stroke-width="3" stroke="#797979" fill="none" />
  </g>
</svg>