<?xml version="1.0" encoding="utf-8"?>
<svg version="1.1" xmlns:xlink="http://www.w3.org/1999/xlink" width="21px" height="39px" xmlns="http://www.w3.org/2000/svg">
  <g transform="matrix(1 0 0 1 -850 -338 )">
    <path d="M 20.737500000000182 21.516477272727343  C 20.912500000000136 21.87102272727282  21 22.262500000000045  21 22.690909090909145  C 21 23.281818181818153  20.846874999999955 23.784090909090935  20.54062500000009 24.197727272727263  C 20.234375 24.611363636363592  19.862499999999955 24.81818181818187  19.425000000000182 24.81818181818187  C 18.8671875 24.81818181818187  18.4296875 24.500568181818153  18.112500000000182 23.86534090909089  L 14.388281249999636 16.309090909090855  L 13.649999999999636 16.309090909090855  L 13.649999999999636 19.23409090909081  L 17.702343750000182 28.341477272727275  C 17.80078125 28.56306818181821  17.84999999999991 28.80681818181813  17.84999999999991 29.072727272727263  C 17.84999999999991 29.456818181818164  17.74609375 29.789204545454538  17.538281250000182 30.06988636363633  C 17.33046874999991 30.350568181818232  17.08437499999991 30.490909090909103  16.800000000000182 30.490909090909103  L 13.649999999999636 30.490909090909103  L 13.649999999999636 36.518181818181915  C 13.649999999999636 37.19772727272726  13.469531249999818 37.78125  13.108593750000182 38.268749999999955  C 12.747656249999636 38.75625000000008  12.315624999999955 39  11.8125 39  L 9.1875 39  C 8.684375000000045 39  8.252343749999909 38.75625000000008  7.891406249999818 38.268749999999955  C 7.530468750000182 37.78125  7.349999999999909 37.19772727272726  7.349999999999909 36.518181818181915  L 7.349999999999909 30.490909090909103  L 4.199999999999818 30.490909090909103  C 3.915625000000091 30.490909090909103  3.669531250000091 30.350568181818232  3.4617187499998185 30.06988636363633  C 3.25390625 29.789204545454538  3.150000000000091 29.456818181818164  3.150000000000091 29.072727272727263  C 3.150000000000091 28.80681818181813  3.19921875 28.56306818181821  3.2976562499998185 28.341477272727275  L 7.349999999999909 19.23409090909081  L 7.349999999999909 16.309090909090855  L 6.611718749999909 16.309090909090855  L 2.8874999999998185 23.86534090909089  C 2.5703125 24.500568181818153  2.1328125 24.81818181818187  1.574999999999818 24.81818181818187  C 1.1375000000000455 24.81818181818187  0.765625 24.611363636363592  0.4593750000001364 24.197727272727263  C 0.15312500000004547 23.784090909090935  0 23.281818181818153  0 22.690909090909145  C 0 22.262500000000045  0.08749999999986358 21.87102272727282  0.2624999999998181 21.516477272727343  L 4.462500000000091 13.007386363636384  C 5.260937499999955 11.426704545454584  6.223437500000045 10.636363636363626  7.349999999999909 10.636363636363626  L 13.649999999999636 10.636363636363626  C 14.776562499999955 10.636363636363626  15.739062500000045 11.426704545454584  16.53749999999991 13.007386363636384  L 20.737500000000182 21.516477272727343  Z M 13.100390624999818 1.4514204545454845  C 13.816796875000136 2.419034090909122  14.175000000000182 3.589772727272759  14.175000000000182 4.963636363636341  C 14.175000000000182 6.337499999999977  13.816796875000136 7.5082386363636715  13.100390624999818 8.475852272727252  C 12.383984374999953 9.443465909090946  11.517187499999636 9.927272727272737  10.5 9.927272727272737  C 9.482812499999909 9.927272727272737  8.616015625000045 9.443465909090946  7.899609375000182 8.475852272727252  C 7.183203124999864 7.5082386363636715  6.824999999999818 6.337499999999977  6.824999999999818 4.963636363636341  C 6.824999999999818 3.589772727272759  7.183203124999864 2.419034090909122  7.899609375000182 1.4514204545454845  C 8.616015625000045 0.4838068181818471  9.482812499999909 0  10.5 0  C 11.517187499999636 0  12.383984374999953 0.4838068181818471  13.100390624999818 1.4514204545454845  Z " fill-rule="nonzero" fill="#ffffff" stroke="none" transform="matrix(1 0 0 1 850 338 )" />
  </g>
</svg>