<?xml version="1.0" encoding="utf-8"?>
<svg version="1.1" xmlns:xlink="http://www.w3.org/1999/xlink" width="10px" height="10px" xmlns="http://www.w3.org/2000/svg">
  <g transform="matrix(1 0 0 1 -1343 -98 )">
    <path d="M 6.178385416666515 6.178385416666657  C 6.50390625 5.852864583333343  6.666666666666515 5.460069444444443  6.666666666666515 5  C 6.666666666666515 4.539930555555557  6.50390625 4.147135416666671  6.178385416666515 3.8216145833333286  C 5.852864583333485 3.49609375  5.460069444444343 3.3333333333333286  5 3.3333333333333286  C 4.539930555555657 3.3333333333333286  4.147135416666515 3.49609375  3.821614583333485 3.8216145833333286  C 3.49609375 4.147135416666671  3.333333333333485 4.539930555555557  3.333333333333485 5  C 3.333333333333485 5.460069444444443  3.49609375 5.852864583333343  3.821614583333485 6.178385416666657  C 4.147135416666515 6.50390625  4.539930555555657 6.666666666666657  5 6.666666666666657  C 5.460069444444343 6.666666666666657  5.852864583333485 6.50390625  6.178385416666515 6.178385416666657  Z M 9.947916666666515 4.137369791666671  C 9.982638888888914 4.182942708333329  10 4.2339409722222285  10 4.290364583333329  L 10 5.735677083333343  C 10 5.787760416666657  9.982638888888914 5.837673611111114  9.947916666666515 5.885416666666657  C 9.913194444444343 5.9331597222222285  9.869791666666515 5.9613715277777715  9.817708333333485 5.970052083333343  L 8.61328125 6.15234375  C 8.530815972222172 6.38671875  8.446180555555657 6.584201388888886  8.359375 6.744791666666657  C 8.511284722222172 6.961805555555557  8.743489583333485 7.2612847222222285  9.055989583333485 7.643229166666657  C 9.099392361111086 7.6953125  9.12109375 7.7495659722222285  9.12109375 7.805989583333343  C 9.12109375 7.862413194444443  9.1015625 7.912326388888886  9.0625 7.955729166666657  C 8.9453125 8.116319444444443  8.73046875 8.350694444444443  8.41796875 8.658854166666657  C 8.10546875 8.967013888888886  7.901475694444343 9.12109375  7.805989583333485 9.12109375  C 7.75390625 9.12109375  7.697482638888914 9.1015625  7.63671875 9.0625  L 6.73828125 8.359375  C 6.547309027777828 8.459201388888886  6.349826388888914 8.541666666666657  6.145833333333485 8.606770833333343  C 6.076388888888914 9.197048611111114  6.013454861111086 9.600694444444443  5.95703125 9.817708333333343  C 5.926649305555657 9.939236111111114  5.848524305555657 10  5.72265625 10  L 4.27734375 10  C 4.216579861111086 10  4.163411458333485 9.981553819444443  4.117838541666515 9.944661458333343  C 4.072265625 9.907769097222229  4.047309027777828 9.861111111111114  4.04296875 9.8046875  L 3.860677083333485 8.606770833333343  C 3.6480034722221717 8.537326388888886  3.4526909722221717 8.45703125  3.274739583333485 8.365885416666657  L 2.356770833333485 9.0625  C 2.3133680555556566 9.1015625  2.259114583333485 9.12109375  2.194010416666515 9.12109375  C 2.1332465277778283 9.12109375  2.0789930555556566 9.097222222222229  2.03125 9.049479166666657  C 1.484375 8.5546875  1.126302083333485 8.190104166666657  0.95703125 7.955729166666657  C 0.9266493055556566 7.912326388888886  0.9114583333334849 7.862413194444443  0.9114583333334849 7.805989583333343  C 0.9114583333334849 7.75390625  0.9288194444443434 7.703993055555557  0.9635416666665151 7.65625  C 1.028645833333485 7.565104166666657  1.139322916666515 7.420789930555557  1.295572916666515 7.223307291666657  C 1.451822916666515 7.0258246527777715  1.569010416666515 6.872829861111114  1.647135416666515 6.764322916666657  C 1.529947916666515 6.5473090277777715  1.4409722222221717 6.3324652777777715  1.380208333333485 6.119791666666657  L 0.18880208333348492 5.944010416666657  C 0.1323784722221717 5.935329861111114  0.08680555555565661 5.908203125  0.052083333333484916 5.862630208333343  C 0.017361111111085847 5.817057291666657  0 5.7660590277777715  0 5.709635416666671  L 0 4.264322916666671  C 0 4.212239583333329  0.017361111111085847 4.162326388888886  0.052083333333484916 4.114583333333329  C 0.08680555555565661 4.0668402777777715  0.1280381944443434 4.0386284722222285  0.17578125 4.029947916666671  L 1.38671875 3.84765625  C 1.4474826388889142 3.6480034722222285  1.5321180555556566 3.448350694444443  1.640625 3.2486979166666714  C 1.4670138888889142 3.0013020833333286  1.2348090277778283 2.7018229166666714  0.9440104166665151 2.3502604166666714  C 0.9006076388889142 2.2981770833333286  0.87890625 2.24609375  0.87890625 2.1940104166666714  C 0.87890625 2.1506076388888857  0.8984375 2.100694444444443  0.9375 2.0442708333333286  C 1.0503472222221717 1.8880208333333286  1.2641059027778283 1.6547309027777715  1.578776041666515 1.3444010416666572  C 1.8934461805556566 1.0340711805555571  2.0985243055556566 0.87890625  2.194010416666515 0.87890625  C 2.2504340277778283 0.87890625  2.306857638888914 0.9006076388888857  2.36328125 0.9440104166666714  L 3.26171875 1.640625  C 3.4526909722221717 1.5407986111111143  3.650173611111086 1.4583333333333286  3.854166666666515 1.3932291666666572  C 3.923611111111086 0.8029513888888857  3.986545138888914 0.39930555555555713  4.04296875 0.1822916666666714  C 4.073350694444343 0.06076388888888573  4.151475694444343 0  4.27734375 0  L 5.72265625 0  C 5.783420138888914 0  5.836588541666515 0.018446180555557135  5.882161458333485 0.055338541666671404  C 5.927734375 0.09223090277777146  5.952690972222172 0.13888888888888573  5.95703125 0.1953125  L 6.139322916666515 1.3932291666666572  C 6.351996527777828 1.4626736111111143  6.547309027777828 1.54296875  6.725260416666515 1.6341145833333286  L 7.649739583333485 0.9375  C 7.688802083333485 0.8984375  7.740885416666515 0.87890625  7.805989583333485 0.87890625  C 7.862413194444343 0.87890625  7.916666666666515 0.9006076388888857  7.96875 0.9440104166666714  C 8.528645833333485 1.4605034722222285  8.88671875 1.8294270833333286  9.04296875 2.05078125  C 9.073350694444343 2.0855034722222285  9.088541666666515 2.1332465277777715  9.088541666666515 2.1940104166666714  C 9.088541666666515 2.24609375  9.071180555555657 2.296006944444443  9.036458333333485 2.34375  C 8.971354166666515 2.4348958333333286  8.860677083333485 2.579210069444443  8.704427083333485 2.7766927083333286  C 8.548177083333485 2.9741753472222285  8.430989583333485 3.1271701388888857  8.352864583333485 3.2356770833333286  C 8.465711805555657 3.4526909722222285  8.5546875 3.6653645833333286  8.619791666666515 3.8736979166666714  L 9.811197916666515 4.055989583333329  C 9.867621527777828 4.064670138888886  9.913194444444343 4.091796875  9.947916666666515 4.137369791666671  Z " fill-rule="nonzero" fill="#434f96" stroke="none" transform="matrix(1 0 0 1 1343 98 )" />
  </g>
</svg>